# xmcd CD database file
#
# Track frame offsets:
#	183
#	2323
#	16443
#	26325
#	35428
#	61170
#	70430
#	85990
#	107120
#	138613
#	165573
#	173563
#	185328
#	200448
#
# Disc length: 2794 seconds
#
# Revision: 0
# Processed by: cddbd v1.4PL0 Copyright (c) Steve Scherf et al.
# Submitted via: CDex 1.50beta9
#
DISCID=ae0ae80e
DTITLE=Fats Domino and the Fats Domino Jazz Band - Concert in Juan-les-Pins 13 07 1987 CD2
DYEAR=1987
DGENRE=Jazz
TTITLE0=Introduction
TTITLE1=Mardi Gras in New Orleans
TTITLE2=Going Home
TTITLE3=Manne Moe
TTITLE4=When the Saints go Marchin' in
TTITLE5=Swanee river hop
TTITLE6=Sheik of Araby
TTITLE7=Shake Ratt and Roll
TTITLE8=Sentimental Journey
TTITLE9=Rosalie
TTITLE10=Whole lotta lovin'
TTITLE11=Valley of Tears
TTITLE12=Pierre Merli's Special
TTITLE13=Christian Pellerein's Boogie Woogie
EXTD=YEAR: 1987
EXTT0=
EXTT1=
EXTT2=
EXTT3=
EXTT4=
EXTT5=
EXTT6=
EXTT7=
EXTT8=
EXTT9=
EXTT10=
EXTT11=
EXTT12=
EXTT13=
PLAYORDER=
